<svg width="1395" height="860" viewBox="0 0 1395 860" fill="none" xmlns="http://www.w3.org/2000/svg">
<g clip-path="url(#clip0_102_13)">
<g style="mix-blend-mode:multiply">
<g style="mix-blend-mode:multiply">
<path d="M-79.9218 786.463L0.910641 710.256C9.61971 702.042 9.61971 688.731 0.910641 680.525C-7.79842 672.312 -21.9131 672.312 -30.6222 680.525L-111.445 756.733C-120.154 764.947 -120.154 778.258 -111.445 786.463C-102.736 794.677 -88.6212 794.677 -79.9121 786.463H-79.9218Z" fill="#E8E8E8"/>
</g>
<g style="mix-blend-mode:multiply">
<path d="M911.962 1055.55L1169.49 812.75C1178.17 804.561 1178.83 791.14 1170.31 782.809C1161.63 774.318 1147.29 774.226 1138.48 782.532L1118.59 801.294C1114.24 805.401 1107.17 805.401 1102.82 801.294C1098.47 797.187 1098.47 790.536 1102.82 786.429L1193.68 700.756C1202.39 692.543 1202.39 679.231 1193.68 671.026C1184.97 662.812 1170.86 662.812 1162.15 671.026L921.514 897.902C912.805 906.116 912.805 919.427 921.514 927.633C930.223 935.846 944.337 935.846 953.047 927.633L979.193 902.983C983.543 898.876 990.605 898.876 994.964 902.983C999.314 907.09 999.314 913.742 994.964 917.848L880.962 1025.33C872.282 1033.52 871.623 1046.94 880.148 1055.27C888.828 1063.76 903.166 1063.86 911.972 1055.55H911.962Z" fill="#E8E8E8"/>
</g>
<g style="mix-blend-mode:multiply">
<path d="M1170.69 120.399L1384.02 -80.7431C1392.7 -88.9319 1393.36 -102.353 1384.84 -110.684C1376.16 -119.175 1361.82 -119.267 1353.01 -110.961L1333.12 -92.1989C1328.77 -88.0921 1321.7 -88.0921 1317.34 -92.1989C1313 -96.3058 1313 -102.957 1317.34 -107.064L1408.21 -192.737C1416.92 -200.95 1416.92 -214.262 1408.21 -222.467C1399.5 -230.681 1385.39 -230.681 1376.68 -222.467L1136.03 4.40865C1127.32 12.6223 1127.32 25.9339 1136.03 34.1391C1144.74 42.3528 1158.86 42.3528 1167.57 34.1391L1193.71 9.48969C1198.06 5.38287 1205.12 5.38287 1209.48 9.48969C1213.83 13.5966 1213.83 20.2481 1209.48 24.3549L1139.68 90.1731C1131 98.3616 1130.34 111.782 1138.86 120.114C1147.54 128.604 1161.88 128.697 1170.69 120.391V120.399Z" fill="#E8E8E8"/>
</g>
<g style="mix-blend-mode:multiply">
<path d="M409.733 210.255L488.56 135.937C492.91 131.83 499.972 131.83 504.331 135.937C508.681 140.044 508.681 146.695 504.331 150.802L489.151 165.113C480.471 173.302 479.812 186.722 488.337 195.054C497.017 203.544 511.355 203.637 520.16 195.331L650.796 72.1674C654.914 68.2873 661.598 67.6574 666.093 71.1512C671.247 75.1656 671.518 82.3631 666.907 86.7139L649.973 102.679C641.293 110.868 640.634 124.289 649.159 132.62C657.839 141.111 672.177 141.203 680.983 132.897L818.536 3.21624C827.216 -4.97224 827.874 -18.393 819.349 -26.7242C810.669 -35.215 796.332 -35.3074 787.526 -27.0014L710.278 45.8299C706.16 49.71 699.476 50.3398 694.981 46.8461C689.827 42.8316 689.556 35.6342 694.167 31.2838L771.231 -41.3795C779.911 -49.568 780.57 -62.9887 772.045 -71.3199C763.365 -79.8107 749.028 -79.9031 740.222 -71.5971L685.914 -20.3918C681.564 -16.2849 674.502 -16.2849 670.142 -20.3918C665.793 -24.4986 665.793 -31.1502 670.142 -35.257L907.961 -259.478C916.641 -267.667 917.3 -281.087 908.775 -289.419C900.095 -297.909 885.757 -298.002 876.951 -289.696L572.279 -2.46111C563.599 5.72736 562.94 19.148 571.465 27.4793C580.145 35.9701 594.483 36.0625 603.289 27.7564L614.091 17.5775C618.44 13.4707 625.502 13.4707 629.862 17.5775C634.211 21.6844 634.211 28.3359 629.862 32.4428L554.59 103.41C550.24 107.517 543.178 107.517 538.819 103.41C534.469 99.3031 534.469 92.6516 538.819 88.5448L546.617 81.1873C555.297 72.9988 555.956 59.5781 547.431 51.2469C538.751 42.7561 524.413 42.6637 515.607 50.9697L377.677 181.012C368.871 189.318 368.968 202.831 377.977 211.019C386.812 219.056 401.053 218.435 409.733 210.247V210.255Z" fill="#E8E8E8"/>
</g>
<g style="mix-blend-mode:multiply">
<path d="M1385.33 738.625C1394.04 730.411 1394.04 717.1 1385.33 708.894C1376.62 700.681 1362.51 700.681 1353.8 708.894C1345.09 717.108 1345.09 730.42 1353.8 738.625C1362.51 746.839 1376.62 746.839 1385.33 738.625Z" fill="#E8E8E8"/>
</g>
<g style="mix-blend-mode:multiply">
<path d="M484.686 -132.982L342.396 1.17518C333.687 9.38883 333.687 22.7004 342.396 30.9056C351.105 39.1193 365.22 39.1193 373.929 30.9056L516.229 -103.251C524.938 -111.465 524.938 -124.776 516.229 -132.982C507.519 -141.195 493.405 -141.195 484.696 -132.982H484.686Z" fill="#E8E8E8"/>
</g>
<g style="mix-blend-mode:multiply">
<path d="M977.062 32.9631L926.871 80.2883C918.162 88.5019 918.162 101.813 926.871 110.019C935.58 118.232 949.694 118.232 958.403 110.019L1008.59 62.6936C1017.3 54.4799 1017.3 41.1684 1008.59 32.9631C999.885 24.7494 985.771 24.7494 977.062 32.9631Z" fill="#E8E8E8"/>
</g>
<g style="mix-blend-mode:multiply">
<path d="M673.311 755.472C664.602 763.686 664.602 776.997 673.311 785.203C682.02 793.416 696.135 793.416 704.844 785.203C713.553 776.989 713.553 763.677 704.844 755.472C696.135 747.258 682.02 747.258 673.311 755.472Z" fill="#E8E8E8"/>
</g>
<g style="mix-blend-mode:multiply">
<path d="M1342.67 392.459L1200.37 526.616C1191.66 534.829 1191.66 548.141 1200.37 556.346C1209.08 564.56 1223.19 564.56 1231.9 556.346L1374.2 422.189C1382.91 413.976 1382.91 400.664 1374.2 392.459C1365.49 384.245 1351.38 384.245 1342.67 392.459Z" fill="#E8E8E8"/>
</g>
<g style="mix-blend-mode:multiply">
<path d="M43.9616 485.017L-320.705 801.16C-343.025 820.51 -343.025 851.879 -320.705 871.22C-298.385 890.57 -262.202 890.57 -239.892 871.22L124.775 555.077C147.095 535.727 147.095 504.359 124.775 485.017C102.455 465.667 66.2719 465.667 43.9616 485.017Z" stroke="white" stroke-miterlimit="10"/>
</g>
<g style="mix-blend-mode:multiply">
<path d="M1169.56 748.023L804.895 1064.17C782.575 1083.52 782.575 1114.88 804.895 1134.23C827.215 1153.58 863.398 1153.58 885.708 1134.23L1250.37 818.083C1272.69 798.733 1272.69 767.365 1250.37 748.023C1228.05 728.673 1191.87 728.673 1169.56 748.023Z" stroke="white" stroke-miterlimit="10"/>
</g>
<g style="mix-blend-mode:multiply">
<path d="M416.281 -145.587L185.293 54.665C171.159 66.9183 171.159 86.7894 185.293 99.0427C199.427 111.296 222.347 111.296 236.481 99.0427L467.48 -101.21C481.614 -113.463 481.614 -133.334 467.48 -145.587C453.346 -157.84 430.425 -157.84 416.291 -145.587H416.281Z" stroke="white" stroke-miterlimit="10"/>
</g>
<g style="mix-blend-mode:multiply">
<path d="M426.744 782.911L195.746 983.171C181.612 995.425 181.612 1015.3 195.746 1027.55C209.88 1039.8 232.8 1039.8 246.934 1027.55L477.933 827.288C492.067 815.035 492.067 795.164 477.933 782.911C463.799 770.657 440.878 770.657 426.744 782.911Z" stroke="white" stroke-miterlimit="10"/>
</g>
<g style="mix-blend-mode:multiply">
<path d="M308.169 171.521L399.435 85.4792C408.144 77.2655 408.144 63.954 399.435 55.7487C390.726 47.535 376.611 47.535 367.902 55.7487L276.636 141.791C267.927 150.004 267.927 163.316 276.636 171.521C285.345 179.735 299.46 179.735 308.169 171.521Z" fill="#233E71"/>
</g>
<g style="mix-blend-mode:multiply">
<path d="M-102.804 687.908L154.729 445.1C163.409 436.912 164.067 423.491 155.542 415.16C146.862 406.669 132.525 406.577 123.719 414.883L103.821 433.645C99.4712 437.752 92.4085 437.752 88.0491 433.645C83.6994 429.538 83.6994 422.887 88.0491 418.78L178.918 333.107C187.627 324.894 187.627 311.582 178.918 303.377C170.209 295.163 156.095 295.163 147.386 303.377L-93.2621 530.252C-101.971 538.466 -101.971 551.777 -93.2621 559.983C-84.5531 568.196 -70.4384 568.196 -61.7293 559.983L-35.5827 535.332C-31.2331 531.226 -24.1709 531.226 -19.8115 535.332C-15.4618 539.44 -15.4618 546.091 -19.8115 550.198L-133.814 657.681C-142.494 665.869 -143.152 679.29 -134.627 687.622C-125.947 696.112 -111.61 696.205 -102.804 687.899V687.908Z" fill="#233E71"/>
</g>
<g style="mix-blend-mode:multiply">
<path d="M598.426 1179.79L855.958 936.988C864.638 928.8 865.297 915.379 856.772 907.048C848.092 898.557 833.754 898.465 824.949 906.771L805.05 925.533C800.701 929.64 793.639 929.64 789.279 925.533C784.929 921.426 784.929 914.774 789.279 910.668L880.148 824.995C888.857 816.782 888.857 803.47 880.148 795.265C871.439 787.051 857.324 787.051 848.615 795.265L607.978 1022.14C599.269 1030.35 599.269 1043.67 607.978 1051.87C616.687 1060.08 630.801 1060.08 639.51 1051.87L665.657 1027.22C670.007 1023.11 677.069 1023.11 681.428 1027.22C685.778 1031.33 685.778 1037.98 681.428 1042.09L567.426 1149.57C558.746 1157.76 558.087 1171.18 566.612 1179.51C575.292 1188 589.629 1188.09 598.435 1179.79H598.426Z" stroke="#4C9FFF" stroke-width="2.83" stroke-miterlimit="10"/>
</g>
<g style="mix-blend-mode:multiply">
<path d="M236.598 955.213L449.936 754.07C458.616 745.882 459.275 732.461 450.75 724.13C442.07 715.639 427.732 715.547 418.926 723.853L399.028 742.615C394.678 746.722 387.616 746.722 383.257 742.615C378.907 738.508 378.907 731.857 383.257 727.75L474.125 642.077C482.835 633.864 482.835 620.552 474.125 612.347C465.416 604.133 451.302 604.133 442.593 612.347L201.955 839.222C193.246 847.436 193.246 860.747 201.955 868.953C210.664 877.166 224.779 877.166 233.488 868.953L259.635 844.303C263.984 840.196 271.046 840.196 275.406 844.303C279.755 848.41 279.755 855.062 275.406 859.168L205.598 924.987C196.918 933.175 196.259 946.596 204.784 954.927C213.464 963.418 227.801 963.511 236.607 955.204L236.598 955.213Z" fill="#233E71"/>
</g>
<g style="mix-blend-mode:multiply">
<path d="M1194.48 243.572L1365.22 82.59C1369.57 78.4832 1376.63 78.4832 1380.99 82.59C1385.34 86.6971 1385.34 93.3487 1380.99 97.4555L1273.89 198.43C1265.21 206.618 1264.55 220.039 1273.07 228.37C1281.75 236.861 1296.09 236.954 1304.9 228.648L1370.08 167.188C1374.2 163.308 1380.89 162.678 1385.38 166.172C1390.53 170.186 1390.81 177.383 1386.19 181.734L1354.93 211.212C1346.25 219.401 1345.59 232.822 1354.12 241.153C1362.8 249.644 1377.14 249.736 1385.94 241.438L1713.04 -66.9526C1721.72 -75.141 1722.38 -88.5615 1713.85 -96.8927C1705.17 -105.384 1690.84 -105.476 1682.03 -97.1699L1604.78 -24.3389C1600.67 -20.4588 1593.98 -19.8289 1589.49 -23.3227C1584.33 -27.3371 1584.06 -34.5346 1588.67 -38.885L1665.74 -111.548C1674.42 -119.736 1675.08 -133.157 1666.55 -141.488C1657.87 -149.979 1643.53 -150.072 1634.73 -141.766L1630.98 -138.23C1626.63 -134.123 1619.57 -134.123 1615.21 -138.23C1610.86 -142.337 1610.86 -148.988 1615.21 -153.095L1802.47 -329.647C1811.15 -337.836 1811.8 -351.256 1803.28 -359.587C1794.6 -368.078 1780.26 -368.171 1771.46 -359.865L1466.78 -72.6299C1458.1 -64.4414 1457.45 -51.0207 1465.97 -42.6895C1474.65 -34.1986 1488.99 -34.1063 1497.79 -42.4123L1508.6 -52.5912C1512.95 -56.6981 1520.01 -56.6981 1524.37 -52.5912C1528.72 -48.4844 1528.72 -41.8328 1524.37 -37.726L1431.25 50.0629C1426.9 54.1697 1419.84 54.1697 1415.48 50.0629C1411.13 45.9561 1411.13 39.3045 1415.48 35.1976L1423.28 27.8406C1431.96 19.6522 1432.62 6.23146 1424.09 -2.09979C1415.41 -10.5906 1401.07 -10.683 1392.27 -2.37693L1162.41 214.328C1153.61 222.634 1153.7 236.147 1162.71 244.336C1171.55 252.373 1185.79 251.752 1194.47 243.563L1194.48 243.572Z" stroke="#4C9FFF" stroke-width="2.83" stroke-miterlimit="10"/>
</g>
<g style="mix-blend-mode:multiply">
<path d="M1102.8 1120.26L1181.62 1045.94C1185.97 1041.83 1193.04 1041.83 1197.39 1045.94C1201.74 1050.05 1201.74 1056.7 1197.39 1060.81L1182.21 1075.12C1173.53 1083.31 1172.88 1096.73 1181.4 1105.06C1190.08 1113.55 1204.42 1113.64 1213.22 1105.34L1343.86 982.172C1347.98 978.292 1354.66 977.662 1359.16 981.156C1364.31 985.17 1364.58 992.368 1359.97 996.718L1343.04 1012.68C1334.36 1020.87 1333.7 1034.29 1342.22 1042.62C1350.9 1051.11 1365.24 1051.21 1374.05 1042.9L1511.62 913.196C1520.3 905.007 1520.96 891.587 1512.43 883.255C1503.75 874.764 1489.41 874.672 1480.61 882.978L1403.36 955.809C1399.24 959.689 1392.56 960.319 1388.06 956.826C1382.91 952.811 1382.64 945.614 1387.25 941.263L1464.31 868.6C1472.99 860.412 1473.65 846.991 1465.13 838.66C1456.45 830.169 1442.11 830.076 1433.3 838.382L1379 889.588C1374.65 893.695 1367.58 893.695 1363.23 889.588C1358.88 885.481 1358.88 878.829 1363.23 874.723L1601.04 650.501C1609.72 642.313 1610.38 628.892 1601.86 620.561C1593.18 612.07 1578.84 611.977 1570.03 620.283L1265.36 907.527C1256.68 915.715 1256.02 929.136 1264.55 937.467C1273.23 945.958 1287.57 946.05 1296.37 937.744L1307.17 927.565C1311.52 923.459 1318.59 923.459 1322.94 927.565C1327.29 931.672 1327.29 938.324 1322.94 942.431L1247.67 1013.4C1243.32 1017.5 1236.26 1017.5 1231.9 1013.4C1227.55 1009.29 1227.55 1002.64 1231.9 998.532L1239.7 991.175C1248.38 982.987 1249.04 969.566 1240.51 961.235C1231.83 952.744 1217.5 952.652 1208.69 960.958L1070.76 1091.01C1061.95 1099.31 1062.05 1112.83 1071.06 1121.02C1079.89 1129.05 1094.14 1128.43 1102.82 1120.24L1102.8 1120.26Z" stroke="#4C9FFF" stroke-width="2.83" stroke-miterlimit="10"/>
</g>
<g style="mix-blend-mode:multiply">
<path d="M451.67 -236.97L205.588 -4.95489C201.238 -0.848055 194.176 -0.848055 189.817 -4.95489C185.467 -9.06172 185.467 -15.7133 189.817 -19.8201L240.744 -67.8424C249.424 -76.0308 250.083 -89.4517 241.558 -97.783C232.878 -106.274 218.54 -106.366 209.734 -98.0601L200.715 -89.5609C196.598 -85.6808 189.914 -85.0509 185.419 -88.5447C180.265 -92.5591 179.994 -99.7566 184.605 -104.107L261.669 -176.762C270.349 -184.95 271.008 -198.371 262.483 -206.702C253.803 -215.193 239.465 -215.286 230.659 -206.979L-142.232 144.579C-150.912 152.768 -151.571 166.188 -143.046 174.52C-134.366 183.01 -120.028 183.103 -111.222 174.797L-33.9743 101.974C-29.8572 98.0938 -23.1728 97.4639 -18.6778 100.958C-13.524 104.972 -13.2528 112.17 -17.864 116.52L-182.997 272.21C-191.677 280.399 -192.336 293.819 -183.811 302.151C-175.131 310.641 -160.793 310.734 -151.987 302.428L-148.238 298.892C-143.889 294.785 -136.826 294.785 -132.467 298.892C-128.117 302.999 -128.117 309.65 -132.467 313.757L-216.535 393.022C-225.215 401.21 -225.874 414.631 -217.349 422.962C-208.669 431.453 -194.331 431.545 -185.526 423.239L15.9453 233.3C24.6253 225.112 25.2841 211.691 16.7591 203.36C8.07909 194.869 -6.25842 194.777 -15.0643 203.083L-25.8659 213.262C-30.2156 217.368 -37.2778 217.368 -41.6371 213.262C-45.9868 209.155 -45.9868 202.503 -41.6371 198.396L139.558 27.5639C143.908 23.457 150.97 23.457 155.329 27.5639C159.679 31.6707 159.679 38.3223 155.329 42.4291L147.531 49.7861C138.851 57.9746 138.192 71.3953 146.717 79.7266C155.397 88.2172 169.735 88.3096 178.54 80.0037L483.726 -207.727C492.532 -216.033 492.435 -229.546 483.426 -237.735C474.591 -245.772 460.35 -245.15 451.67 -236.962V-236.97Z" stroke="#4C9FFF" stroke-width="2.83" stroke-miterlimit="10"/>
</g>
<g style="mix-blend-mode:multiply">
<path d="M1204.79 412.246C1213.49 404.032 1213.49 390.721 1204.79 382.515C1196.08 374.302 1181.96 374.302 1173.25 382.515C1164.54 390.729 1164.54 404.04 1173.25 412.246C1181.96 420.459 1196.08 420.459 1204.79 412.246Z" fill="#233E71"/>
</g>
<g style="mix-blend-mode:multiply">
<path d="M199.727 463.342L118.904 539.549C110.195 547.763 110.195 561.074 118.904 569.28C127.613 577.493 141.728 577.493 150.437 569.28L231.26 493.072C239.969 484.859 239.969 471.547 231.26 463.342C222.551 455.128 208.436 455.128 199.727 463.342Z" stroke="#4C9FFF" stroke-width="2.83" stroke-miterlimit="10"/>
</g>
<g style="mix-blend-mode:multiply">
<path d="M1038.03 -141.824L808.083 74.9728C799.374 83.1865 799.374 96.4981 808.083 104.703C816.792 112.917 830.906 112.917 839.615 104.703L1069.56 -112.094C1078.27 -120.308 1078.27 -133.619 1069.56 -141.824C1060.85 -150.038 1046.73 -150.038 1038.03 -141.824Z" fill="#233E71"/>
</g>
<g style="mix-blend-mode:multiply">
<path d="M91.1973 112.53L41.0064 159.855C32.2973 168.069 32.2973 181.38 41.0064 189.586C49.7155 197.799 63.8302 197.799 72.5392 189.586L122.73 142.26C131.439 134.047 131.439 120.735 122.73 112.53C114.021 104.316 99.906 104.316 91.1973 112.53Z" stroke="#4C9FFF" stroke-width="2.83" stroke-miterlimit="10"/>
</g>
<g style="mix-blend-mode:multiply">
<path d="M225.903 111.002C217.194 119.216 217.194 132.527 225.903 140.733C234.612 148.946 248.726 148.946 257.435 140.733C266.145 132.519 266.145 119.207 257.435 111.002C248.726 102.789 234.612 102.789 225.903 111.002Z" stroke="#4C9FFF" stroke-width="2.83" stroke-miterlimit="10"/>
</g>
<g style="mix-blend-mode:multiply">
<path d="M470.58 883.188L561.846 797.146C570.555 788.932 570.555 775.621 561.846 767.416C553.137 759.202 539.022 759.202 530.313 767.416L439.047 853.458C430.338 861.671 430.338 874.983 439.047 883.188C447.756 891.402 461.871 891.402 470.58 883.188Z" fill="#233E71"/>
</g>
<g style="mix-blend-mode:multiply">
<path d="M1248.64 370.892L1329.46 294.684C1338.17 286.471 1338.17 273.159 1329.46 264.954C1320.75 256.74 1306.64 256.74 1297.93 264.954L1217.11 341.161C1208.4 349.375 1208.4 362.687 1217.11 370.892C1225.82 379.106 1239.93 379.106 1248.64 370.892Z" stroke="#FFC700" stroke-width="2.83" stroke-miterlimit="10"/>
</g>
<g style="mix-blend-mode:multiply">
<path d="M-162.324 1106.9L210.577 755.321C219.257 747.133 219.916 733.712 211.391 725.381C202.711 716.89 188.373 716.797 179.567 725.104L101.98 798.254C97.6305 802.361 90.5684 802.361 86.209 798.254C81.8594 794.147 81.8594 787.495 86.209 783.389L238.429 639.868C247.138 631.654 247.138 618.343 238.429 610.137C229.72 601.924 215.605 601.924 206.896 610.137L-98.2895 897.869C-106.999 906.082 -106.999 919.394 -98.2895 927.599C-89.5803 935.813 -75.4656 935.813 -66.7566 927.599L-37.4131 899.935C-33.0634 895.828 -26.0013 895.828 -21.6419 899.935C-17.2922 904.041 -17.2922 910.693 -21.6419 914.8L-193.334 1076.67C-202.014 1084.86 -202.672 1098.28 -194.147 1106.61C-185.467 1115.1 -171.13 1115.19 -162.324 1106.89V1106.9Z" stroke="#FFC700" stroke-width="2.83" stroke-miterlimit="10"/>
</g>
<g style="mix-blend-mode:multiply">
<path d="M243.582 421.996C234.873 430.21 234.873 443.522 243.582 451.727C252.291 459.94 266.406 459.94 275.115 451.727C283.824 443.513 283.824 430.202 275.115 421.996C266.406 413.783 252.291 413.783 243.582 421.996Z" stroke="#FFC700" stroke-width="2.83" stroke-miterlimit="10"/>
</g>
<g style="mix-blend-mode:multiply">
<path d="M1096.47 188.864C1105.18 180.65 1105.18 167.339 1096.47 159.134C1087.76 150.92 1073.65 150.92 1064.94 159.134C1056.23 167.347 1056.23 180.659 1064.94 188.864C1073.65 197.078 1087.76 197.078 1096.47 188.864Z" stroke="#FFC700" stroke-width="2.83" stroke-miterlimit="10"/>
</g>
<g style="mix-blend-mode:multiply">
<path d="M169.793 163.903L27.4932 298.06C18.7842 306.273 18.7842 319.585 27.4932 327.79C36.2023 336.004 50.317 336.004 59.026 327.79L201.326 193.634C210.035 185.42 210.035 172.108 201.326 163.903C192.616 155.689 178.502 155.689 169.793 163.903Z" stroke="#FFC700" stroke-width="2.83" stroke-miterlimit="10"/>
</g>
<g style="mix-blend-mode:multiply">
<path d="M617.2 808.374L474.9 942.532C466.191 950.745 466.191 964.057 474.9 972.262C483.61 980.476 497.724 980.476 506.433 972.262L648.733 838.104C657.442 829.891 657.442 816.579 648.733 808.374C640.024 800.16 625.909 800.16 617.2 808.374Z" stroke="#FFC700" stroke-width="2.83" stroke-miterlimit="10"/>
</g>
<g style="mix-blend-mode:multiply">
<path d="M1360.52 573.177L1218.22 707.333C1209.51 715.547 1209.51 728.858 1218.22 737.064C1226.93 745.277 1241.05 745.277 1249.75 737.064L1392.05 602.907C1400.76 594.693 1400.76 581.382 1392.05 573.177C1383.35 564.963 1369.23 564.963 1360.52 573.177Z" stroke="#FFC700" stroke-width="2.83" stroke-miterlimit="10"/>
</g>
<g style="mix-blend-mode:multiply">
<path d="M1398.78 339.557C1390.07 347.771 1390.07 361.082 1398.78 369.288C1407.49 377.501 1421.6 377.501 1430.31 369.288C1439.02 361.074 1439.02 347.763 1430.31 339.557C1421.6 331.344 1407.49 331.344 1398.78 339.557Z" stroke="#FFC700" stroke-width="2.83" stroke-miterlimit="10"/>
</g>
<g style="mix-blend-mode:multiply">
<path d="M1223.23 928.884L1495.1 693.181" stroke="white" stroke-miterlimit="10"/>
</g>
<g style="mix-blend-mode:multiply">
<path d="M-2.51001 170.824L269.36 -64.8696" stroke="white" stroke-miterlimit="10"/>
</g>
<g style="mix-blend-mode:multiply">
<path d="M145.544 719.561L318.543 569.581" stroke="white" stroke-miterlimit="10"/>
</g>
<g style="mix-blend-mode:multiply">
<path d="M-86.762 996.97L185.108 761.276" stroke="white" stroke-miterlimit="10"/>
</g>
<g style="mix-blend-mode:multiply">
<path d="M135.392 290.493L245.578 194.977" stroke="white" stroke-miterlimit="10"/>
</g>
<g style="mix-blend-mode:multiply">
<path d="M1219.51 320.711L1576.72 11.0352" stroke="white" stroke-miterlimit="10"/>
</g>
<g style="mix-blend-mode:multiply">
<path d="M1387.54 509.374L1840.34 116.822" stroke="white" stroke-miterlimit="10"/>
</g>
<g style="mix-blend-mode:multiply">
<path d="M689.778 928.783L1002.03 658.093" stroke="white" stroke-miterlimit="10"/>
</g>
<g style="mix-blend-mode:multiply">
<path d="M314.261 175.863L626.509 -94.8268" stroke="white" stroke-miterlimit="10"/>
</g>
<g style="mix-blend-mode:multiply">
<path d="M1006.27 95.7834L1318.51 -174.915" stroke="white" stroke-miterlimit="10"/>
</g>
<g style="mix-blend-mode:multiply">
<path d="M568.684 957.607L749.734 800.639" stroke="white" stroke-miterlimit="10"/>
</g>
<g style="mix-blend-mode:multiply">
<path d="M624.485 734.258L641.109 719.846" stroke="white" stroke-miterlimit="10"/>
</g>
<g style="mix-blend-mode:multiply">
<path d="M105.67 754.129L122.294 739.717" stroke="white" stroke-miterlimit="10"/>
</g>
<g style="mix-blend-mode:multiply">
<path d="M1350.85 541.179L1367.48 526.774" stroke="white" stroke-miterlimit="10"/>
</g>
</g>
</g>
<defs>
<clipPath id="clip0_102_13">
<rect width="1395" height="860" fill="white"/>
</clipPath>
</defs>
</svg>
