<svg width="24" height="25" viewBox="0 0 24 25" fill="none" xmlns="http://www.w3.org/2000/svg">
<path d="M10.2898 4.54966L1.81978 18.6897C1.64514 18.9921 1.55274 19.335 1.55177 19.6842C1.55079 20.0334 1.64127 20.3768 1.8142 20.6802C1.98714 20.9836 2.2365 21.2364 2.53748 21.4135C2.83847 21.5906 3.18058 21.6858 3.52978 21.6897H20.4698C20.819 21.6858 21.1611 21.5906 21.4621 21.4135C21.7631 21.2364 22.0124 20.9836 22.1854 20.6802C22.3583 20.3768 22.4488 20.0334 22.4478 19.6842C22.4468 19.335 22.3544 18.9921 22.1798 18.6897L13.7098 4.54966C13.5315 4.25576 13.2805 4.01278 12.981 3.84414C12.6814 3.67551 12.3435 3.58691 11.9998 3.58691C11.656 3.58691 11.3181 3.67551 11.0186 3.84414C10.7191 4.01278 10.468 4.25576 10.2898 4.54966V4.54966Z" stroke="#A6A6A6" stroke-width="2" stroke-linecap="round" stroke-linejoin="round"/>
<path d="M12 9.68945V13.6895" stroke="#A6A6A6" stroke-width="2" stroke-linecap="round" stroke-linejoin="round"/>
<path d="M12 17.6895H12.01" stroke="#A6A6A6" stroke-width="2" stroke-linecap="round" stroke-linejoin="round"/>
</svg>
