<svg width="24" height="25" viewBox="0 0 24 25" fill="none" xmlns="http://www.w3.org/2000/svg">
<path d="M18 8.31055C18 6.71925 17.3679 5.19312 16.2426 4.06791C15.1174 2.94269 13.5913 2.31055 12 2.31055C10.4087 2.31055 8.88258 2.94269 7.75736 4.06791C6.63214 5.19312 6 6.71925 6 8.31055C6 15.3105 3 17.3105 3 17.3105H21C21 17.3105 18 15.3105 18 8.31055Z" stroke="#A6A6A6" stroke-width="2" stroke-linecap="round" stroke-linejoin="round"/>
<path d="M13.7295 21.3105C13.5537 21.6136 13.3014 21.8652 12.9978 22.0401C12.6941 22.215 12.3499 22.307 11.9995 22.307C11.6492 22.307 11.3049 22.215 11.0013 22.0401C10.6977 21.8652 10.4453 21.6136 10.2695 21.3105" stroke="#A6A6A6" stroke-width="2" stroke-linecap="round" stroke-linejoin="round"/>
</svg>
