<svg viewBox="0 0 22 23" fill="none" xmlns="http://www.w3.org/2000/svg">
<path d="M10.9997 20.4769C16.0623 20.4769 20.1663 16.3728 20.1663 11.3102C20.1663 6.24761 16.0623 2.14355 10.9997 2.14355C5.93706 2.14355 1.83301 6.24761 1.83301 11.3102C1.83301 16.3728 5.93706 20.4769 10.9997 20.4769Z" stroke="currentColor" stroke-width="2" stroke-linecap="round" stroke-linejoin="round"/>
<path d="M11 15.8936H11.0092" stroke="currentColor" stroke-width="2" stroke-linecap="round" stroke-linejoin="round"/>
<path d="M8.33203 8.56009C8.54754 7.94745 8.97292 7.43086 9.53282 7.1018C10.0927 6.77274 10.751 6.65245 11.3911 6.76225C12.0312 6.87204 12.6118 7.20482 13.03 7.70166C13.4483 8.1985 13.6772 8.82732 13.6762 9.47676C13.6762 11.3101 10.9262 12.2268 10.9262 12.2268" stroke="currentColor" stroke-width="2" stroke-linecap="round" stroke-linejoin="round"/>
</svg>
