<svg width="23" height="23" viewBox="0 0 23 23" fill="none" xmlns="http://www.w3.org/2000/svg">
<path d="M19.7722 14.822C19.1999 16.2041 18.3047 17.422 17.165 18.3692C16.0253 19.3165 14.6757 19.9641 13.2342 20.2557C11.7927 20.5472 10.3032 20.4737 8.89598 20.0417C7.48873 19.6096 6.20657 18.832 5.16157 17.777C4.11657 16.722 3.34057 15.4216 2.90139 13.9896C2.46222 12.5576 2.37325 11.0375 2.64227 9.56229C2.91129 8.08705 3.5301 6.70156 4.4446 5.52696C5.3591 4.35236 6.54145 3.4244 7.88828 2.82422" stroke="#A6A6A6" stroke-width="2" stroke-linecap="round" stroke-linejoin="round"/>
<path d="M20.4825 11.2482C20.4825 10.0418 20.2498 8.84717 19.7977 7.7326C19.3456 6.61802 18.6829 5.60529 17.8476 4.75223C17.0122 3.89917 16.0205 3.22249 14.929 2.76082C13.8375 2.29914 12.6677 2.06152 11.4863 2.06152V11.2482H20.4825Z" stroke="#A6A6A6" stroke-width="2" stroke-linecap="round" stroke-linejoin="round"/>
</svg>
