<svg width="27" height="28" viewBox="0 0 27 28" fill="none" xmlns="http://www.w3.org/2000/svg">
<g clip-path="url(#clip0_361_8135)">
<path d="M13.4946 17.5355C15.3578 17.5355 16.8682 15.9931 16.8682 14.0905C16.8682 12.1879 15.3578 10.6455 13.4946 10.6455C11.6315 10.6455 10.1211 12.1879 10.1211 14.0905C10.1211 15.9931 11.6315 17.5355 13.4946 17.5355Z" stroke="#A6A6A6" stroke-width="2" stroke-linecap="round" stroke-linejoin="round"/>
<path d="M21.8161 17.5356C21.6664 17.882 21.6218 18.2662 21.6879 18.6387C21.7541 19.0112 21.928 19.355 22.1872 19.6256L22.2547 19.6945C22.4638 19.9078 22.6297 20.1611 22.7429 20.4399C22.856 20.7187 22.9143 21.0176 22.9143 21.3194C22.9143 21.6212 22.856 21.9201 22.7429 22.1989C22.6297 22.4777 22.4638 22.731 22.2547 22.9443C22.0458 23.1578 21.7978 23.3272 21.5247 23.4428C21.2517 23.5584 20.959 23.6179 20.6635 23.6179C20.3679 23.6179 20.0753 23.5584 19.8022 23.4428C19.5292 23.3272 19.2812 23.1578 19.0723 22.9443L19.0048 22.8754C18.7398 22.6106 18.4032 22.433 18.0384 22.3655C17.6736 22.298 17.2974 22.3436 16.9582 22.4964C16.6256 22.642 16.3419 22.8837 16.1421 23.1918C15.9424 23.4999 15.8351 23.8609 15.8337 24.2304V24.4256C15.8337 25.0347 15.5967 25.6189 15.175 26.0496C14.7532 26.4803 14.1811 26.7223 13.5847 26.7223C12.9882 26.7223 12.4161 26.4803 11.9943 26.0496C11.5726 25.6189 11.3356 25.0347 11.3356 24.4256V24.3223C11.3269 23.9422 11.2064 23.5735 10.9898 23.2643C10.7732 22.9551 10.4706 22.7195 10.1211 22.5883C9.78197 22.4354 9.40573 22.3898 9.04094 22.4574C8.67615 22.5249 8.33954 22.7025 8.07452 22.9672L8.00705 23.0361C7.79817 23.2497 7.55013 23.4191 7.2771 23.5346C7.00407 23.6502 6.71141 23.7097 6.41585 23.7097C6.1203 23.7097 5.82764 23.6502 5.55461 23.5346C5.28158 23.4191 5.03354 23.2497 4.82466 23.0361C4.61555 22.8228 4.44967 22.5695 4.33649 22.2907C4.22331 22.0119 4.16505 21.7131 4.16505 21.4112C4.16505 21.1094 4.22331 20.8106 4.33649 20.5318C4.44967 20.253 4.61555 19.9997 4.82466 19.7864L4.89213 19.7175C5.15138 19.4468 5.32528 19.1031 5.39142 18.7306C5.45757 18.3581 5.41291 17.9738 5.26322 17.6275C5.12068 17.2879 4.88399 16.9982 4.58229 16.7942C4.28059 16.5901 3.92706 16.4806 3.5652 16.4792H3.37403C2.77755 16.4792 2.2055 16.2372 1.78373 15.8065C1.36195 15.3758 1.125 14.7916 1.125 14.1825C1.125 13.5734 1.36195 12.9892 1.78373 12.5585C2.2055 12.1278 2.77755 11.8858 3.37403 11.8858H3.47524C3.84745 11.8769 4.20843 11.7539 4.51126 11.5327C4.81408 11.3116 5.04475 11.0025 5.17326 10.6456C5.32295 10.2993 5.36761 9.91508 5.30146 9.54256C5.23532 9.17005 5.06141 8.82631 4.80217 8.55567L4.7347 8.48677C4.52559 8.27348 4.35971 8.02018 4.24653 7.74137C4.13334 7.46256 4.07509 7.1637 4.07509 6.86188C4.07509 6.56007 4.13334 6.26121 4.24653 5.9824C4.35971 5.70359 4.52559 5.45029 4.7347 5.237C4.94358 5.02346 5.19162 4.85406 5.46465 4.73848C5.73768 4.6229 6.03033 4.56341 6.32589 4.56341C6.62145 4.56341 6.91411 4.6229 7.18714 4.73848C7.46017 4.85406 7.70821 5.02346 7.91708 5.237L7.98456 5.3059C8.24958 5.57063 8.58619 5.74822 8.95098 5.81576C9.31577 5.8833 9.692 5.83771 10.0312 5.68484H10.1211C10.4537 5.53928 10.7374 5.29758 10.9372 4.98949C11.137 4.6814 11.2442 4.32038 11.2457 3.95086V3.75565C11.2457 3.14653 11.4826 2.56237 11.9044 2.13166C12.3262 1.70095 12.8982 1.45898 13.4947 1.45898C14.0912 1.45898 14.6632 1.70095 15.085 2.13166C15.5068 2.56237 15.7437 3.14653 15.7437 3.75565V3.859C15.7452 4.22852 15.8524 4.58954 16.0522 4.89762C16.252 5.20571 16.5356 5.44741 16.8682 5.59298C17.2074 5.74584 17.5837 5.79144 17.9484 5.72389C18.3132 5.65635 18.6498 5.47876 18.9149 5.21403L18.9823 5.14513C19.1912 4.93159 19.4393 4.76219 19.7123 4.64662C19.9853 4.53104 20.278 4.47155 20.5735 4.47155C20.8691 4.47155 21.1617 4.53104 21.4348 4.64662C21.7078 4.76219 21.9558 4.93159 22.1647 5.14513C22.3738 5.35843 22.5397 5.61172 22.6529 5.89053C22.7661 6.16934 22.8243 6.4682 22.8243 6.77002C22.8243 7.07184 22.7661 7.37069 22.6529 7.6495C22.5397 7.92831 22.3738 8.18161 22.1647 8.39491L22.0972 8.46381C21.838 8.73445 21.6641 9.07818 21.598 9.4507C21.5318 9.82321 21.5765 10.2074 21.7262 10.5538V10.6456C21.8687 10.9853 22.1054 11.2749 22.4071 11.479C22.7088 11.683 23.0623 11.7925 23.4242 11.794H23.6153C24.2118 11.794 24.7839 12.0359 25.2057 12.4666C25.6274 12.8974 25.8644 13.4815 25.8644 14.0906C25.8644 14.6997 25.6274 15.2839 25.2057 15.7146C24.7839 16.1453 24.2118 16.3873 23.6153 16.3873H23.5141C23.1523 16.3888 22.7988 16.4983 22.4971 16.7023C22.1954 16.9063 21.9587 17.196 21.8161 17.5356V17.5356Z" stroke="#A6A6A6" stroke-width="2" stroke-linecap="round" stroke-linejoin="round"/>
</g>
<defs>
<clipPath id="clip0_361_8135">
<path d="M0 13.8048C0 6.35212 6.04157 0.310547 13.4942 0.310547C20.9469 0.310547 26.9884 6.35211 26.9884 13.8047V14.3763C26.9884 21.8289 20.9469 27.8705 13.4942 27.8705C6.04157 27.8705 0 21.8289 0 14.3763V13.8048Z" fill="white"/>
</clipPath>
</defs>
</svg>
