<svg width="390" height="844" viewBox="0 0 390 844" fill="none" xmlns="http://www.w3.org/2000/svg">
<g style="mix-blend-mode:multiply">
<path d="M66.1604 304.274L124.062 241.305C127.257 237.826 132.445 237.826 135.647 241.305C138.842 244.785 138.842 250.421 135.647 253.9L124.496 266.026C118.12 272.964 117.637 284.335 123.899 291.394C130.274 298.588 140.806 298.666 147.274 291.629L243.232 187.275C246.256 183.987 251.166 183.453 254.468 186.414C258.253 189.815 258.452 195.913 255.065 199.599L242.627 213.126C236.251 220.064 235.767 231.436 242.029 238.495C248.405 245.689 258.936 245.767 265.405 238.729L366.443 128.853C372.819 121.915 373.302 110.544 367.04 103.485C360.665 96.2911 350.133 96.2128 343.665 103.25L286.923 164.959C283.899 168.247 278.989 168.78 275.687 165.82C271.901 162.419 271.702 156.321 275.089 152.634L331.696 91.068C338.072 84.1301 338.556 72.7589 332.294 65.7C325.918 58.5058 315.386 58.4276 308.918 65.4651L269.027 108.851C265.832 112.33 260.644 112.33 257.442 108.851C254.247 105.371 254.247 99.7352 257.442 96.2555L432.129 -93.7239C438.505 -100.662 438.989 -112.033 432.727 -119.092C426.351 -126.286 415.82 -126.364 409.351 -119.327L185.557 124.043C179.182 130.981 178.698 142.352 184.96 149.411C191.336 156.605 201.867 156.683 208.335 149.646L216.27 141.021C219.465 137.542 224.652 137.542 227.854 141.021C231.049 144.501 231.049 150.137 227.854 153.616L172.564 213.746C169.369 217.225 164.181 217.225 160.979 213.746C157.784 210.266 157.784 204.63 160.979 201.15L166.708 194.917C173.083 187.979 173.567 176.608 167.305 169.549C160.929 162.355 150.398 162.276 143.93 169.314L42.614 279.496C36.1457 286.534 36.2168 297.983 42.8346 304.921C49.3243 311.731 59.7846 311.204 66.1604 304.266V304.274Z" fill="#E8E8E8"/>
<path d="M121.216 13.4558L16.6983 127.125C10.3011 134.084 10.3011 145.363 16.6983 152.315C23.0954 159.274 33.4632 159.274 39.8604 152.315L144.385 38.646C150.782 31.6867 150.782 20.408 144.385 13.4558C137.988 6.4965 127.62 6.4965 121.223 13.4558H121.216Z" fill="#E8E8E8"/>
<path d="M259.771 766.227C253.373 773.187 253.373 784.465 259.771 791.417C266.168 798.377 276.535 798.377 282.933 791.417C289.33 784.458 289.33 773.179 282.933 766.227C276.535 759.268 266.168 759.268 259.771 766.227Z" fill="#E8E8E8"/>
<path d="M624.288 759.917L356.425 1027.78C340.03 1044.17 340.03 1070.75 356.425 1087.14C372.82 1103.54 399.398 1103.54 415.786 1087.14L683.648 819.278C700.043 802.883 700.043 776.305 683.648 759.917C667.253 743.522 640.675 743.522 624.288 759.917V759.917Z" stroke="white" stroke-width="0.711586" stroke-miterlimit="10"/>
<path d="M70.9728 2.77482L-98.6978 172.445C-109.08 182.828 -109.08 199.664 -98.6978 210.046C-88.3158 220.428 -71.4797 220.428 -61.0976 210.046L108.58 40.375C118.962 29.993 118.962 13.1569 108.58 2.77482C98.1981 -7.60723 81.362 -7.60723 70.98 2.77482H70.9728Z" stroke="white" stroke-width="0.711586" stroke-miterlimit="10"/>
<path d="M78.6557 789.476L-91.0221 959.154C-101.404 969.536 -101.404 986.372 -91.0221 996.754C-80.64 1007.14 -63.8039 1007.14 -53.4218 996.754L116.256 827.076C126.638 816.694 126.638 799.858 116.256 789.476C105.874 779.094 89.0378 779.094 78.6557 789.476V789.476Z" stroke="white" stroke-width="0.711586" stroke-miterlimit="10"/>
<path d="M-8.44234 271.456L58.5962 198.554C64.9934 191.595 64.9934 180.316 58.5962 173.364C52.1991 166.405 41.8312 166.405 35.4341 173.364L-31.6045 246.266C-38.0016 253.225 -38.0016 264.504 -31.6045 271.456C-25.2073 278.416 -14.8395 278.416 -8.44234 271.456Z" fill="#233E71"/>
<path d="M204.765 1125.74L393.933 920.024C400.309 913.086 400.793 901.715 394.531 894.656C388.155 887.462 377.623 887.384 371.155 894.421L356.539 910.318C353.344 913.798 348.157 913.798 344.954 910.318C341.759 906.839 341.759 901.203 344.954 897.723L411.701 825.134C418.098 818.175 418.098 806.896 411.701 799.944C405.304 792.985 394.936 792.985 388.539 799.944L211.781 992.172C205.384 999.131 205.384 1010.41 211.781 1017.36C218.178 1024.32 228.546 1024.32 234.943 1017.36L254.149 996.477C257.344 992.997 262.531 992.997 265.733 996.477C268.928 999.957 268.928 1005.59 265.733 1009.07L181.994 1100.14C175.618 1107.08 175.134 1118.45 181.396 1125.51C187.772 1132.7 198.304 1132.78 204.772 1125.74H204.765Z" stroke="#4C9FFF" stroke-width="2.01379" stroke-miterlimit="10"/>
<path d="M-61.0136 935.465L95.692 765.04C102.068 758.102 102.552 746.731 96.2897 739.672C89.9139 732.478 79.3824 732.399 72.9141 739.437L58.2981 755.334C55.103 758.814 49.9156 758.814 46.7134 755.334C43.5184 751.854 43.5184 746.218 46.7134 742.739L113.46 670.15C119.857 663.191 119.857 651.912 113.46 644.96C107.063 638 96.6953 638 90.2981 644.96L-86.4599 837.188C-92.8571 844.147 -92.8571 855.426 -86.4599 862.378C-80.0628 869.337 -69.695 869.337 -63.2978 862.378L-44.0921 841.493C-40.8971 838.013 -35.7096 838.013 -32.5075 841.493C-29.3124 844.972 -29.3124 850.608 -32.5075 854.088L-83.7844 909.855C-90.1602 916.793 -90.6441 928.164 -84.3821 935.223C-78.0063 942.417 -67.4748 942.495 -61.0065 935.458L-61.0136 935.465Z" fill="#233E71"/>
<path d="M96.9663 -74.6545L-83.7909 121.928C-86.9859 125.408 -92.1734 125.408 -95.3755 121.928C-98.5706 118.449 -98.5706 112.813 -95.3755 109.333L-57.9674 68.6448C-51.5916 61.7068 -51.1077 50.3357 -57.3697 43.2767C-63.7455 36.0826 -74.277 36.0043 -80.7453 43.0419L-87.3702 50.2432C-90.3944 53.5307 -95.3044 54.0644 -98.6061 51.1042C-102.392 47.7028 -102.591 41.6045 -99.2039 37.9185L-42.5972 -23.6409C-36.2214 -30.5788 -35.7375 -41.95 -41.9994 -49.0089C-48.3752 -56.203 -58.9067 -56.2813 -65.375 -49.2437L-339.279 248.626C-345.655 255.564 -346.139 266.935 -339.877 273.994C-333.501 281.189 -322.969 281.267 -316.501 274.229L-259.759 212.528C-256.735 209.24 -251.825 208.706 -248.523 211.667C-244.738 215.068 -244.538 221.166 -247.925 224.852L-369.222 356.766C-375.598 363.704 -376.082 375.075 -369.82 382.134C-363.444 389.328 -352.913 389.407 -346.445 382.369L-343.691 379.373C-340.496 375.894 -335.308 375.894 -332.106 379.373C-328.911 382.853 -328.911 388.489 -332.106 391.968L-393.858 459.128C-400.233 466.066 -400.717 477.437 -394.455 484.496C-388.08 491.69 -377.548 491.768 -371.08 484.731L-223.091 323.798C-216.715 316.86 -216.231 305.489 -222.493 298.43C-228.869 291.236 -239.401 291.158 -245.869 298.195L-253.803 306.82C-256.998 310.3 -262.186 310.3 -265.388 306.82C-268.583 303.34 -268.583 297.704 -265.388 294.225L-132.293 149.481C-129.098 146.001 -123.91 146.001 -120.708 149.481C-117.513 152.961 -117.513 158.596 -120.708 162.076L-126.436 168.31C-132.812 175.248 -133.296 186.619 -127.034 193.678C-120.658 200.872 -110.127 200.95 -103.658 193.912L120.513 -49.877C126.981 -56.9146 126.91 -68.3641 120.292 -75.302C113.802 -82.1119 103.342 -81.5853 96.9663 -74.6474V-74.6545Z" stroke="#4C9FFF" stroke-width="2.01379" stroke-miterlimit="10"/>
<path d="M527.669 5.96265L358.767 189.652C352.369 196.611 352.369 207.89 358.767 214.842C365.164 221.801 375.532 221.801 381.929 214.842L550.831 31.1528C557.228 24.1935 557.228 12.9148 550.831 5.96265C544.434 -0.996664 534.066 -0.996664 527.669 5.96265Z" fill="#233E71"/>
<path d="M110.857 874.439L177.895 801.537C184.292 794.577 184.292 783.299 177.895 776.346C171.498 769.387 161.13 769.387 154.733 776.346L87.6944 849.248C81.2972 856.208 81.2972 867.486 87.6944 874.439C94.0915 881.398 104.459 881.398 110.857 874.439Z" fill="#233E71"/>
<path d="M218.551 811.052L114.026 924.721C107.629 931.681 107.629 942.959 114.026 949.911C120.424 956.871 130.791 956.871 137.189 949.911L241.713 836.243C248.111 829.283 248.111 818.005 241.713 811.052C235.316 804.093 224.948 804.093 218.551 811.052V811.052Z" stroke="#FFC700" stroke-width="2.01379" stroke-miterlimit="10"/>
<path d="M271.859 913.072L501.218 683.721" stroke="white" stroke-width="0.711586" stroke-miterlimit="10"/>
<path d="M-3.96875 275.135L225.39 45.7832" stroke="white" stroke-width="0.711586" stroke-miterlimit="10"/>
<path d="M182.912 937.494L315.9 804.499" stroke="white" stroke-width="0.711586" stroke-miterlimit="10"/>
<path d="M223.9 748.254L236.111 736.043" stroke="white" stroke-width="0.711586" stroke-miterlimit="10"/>
</g>
</svg>
